{"title":"City.of.God.2002.DVDRiP.XviD.OPTIONAL-MULTISUB-Zen_Bud","uid":5933368,"size":1491245295,"categoryP":"video","categoryS":"movies","magnet":"?xt=urn:btih:eaf9b7cf675d69c5dc0057dd0c9fb52188762bc4&amp;dn=City.of.God.2002.DVDRiP.XviD.OPTIONAL-MULTISUB-Zen_Bud&amp;tr=udp%3A%2F%2Ftracker.openbittorrent.com%3A80&amp;tr=udp%3A%2F%2Fopen.demonii.com%3A1337&amp;tr=udp%3A%2F%2Ftracker.coppersurfer.tk%3A6969&amp;tr=udp%3A%2F%2Fexodus.desync.com%3A6969","seeders":1,"leechers":0,"uploader":"Zen_Bud","files":-1,"time":1288860504,"description":"****** City.of.God.2002.DVDRiP.XviD.OPTIONAL-MULTISUB-Zen_Bud ******\n\n\nFormat                           : AVI\nFile size                        : 1.37 GiB\nDuration                         : 2h 4mn\nOverall bit rate                 : 1 585 Kbps\n\nVideo\n\nFormat                           : MPEG-4 Visual\nCodec ID/Hint                    : XviD\nDuration                         : 2h 4mn\nBit rate                         : 1 460 Kbps\nWidth                            : 718 pixels\nHeight                           : 550 pixels\nDisplay aspect ratio             : 1.857\nStream size                      : 1.27 GiB (92%)\nWriting library                  : XviD 1.1.2 (UTC 2006-11-01)\n\nAudio\n\nFormat                           : MPEG Audio\nCodec ID/Hint                    : MP3\nDuration                         : 2h 4mn\nBit rate                         : 112 Kbps\nChannel(s)                       : 2 channels\nSampling rate                    : 48.0 KHz\nStream size                      : 99.4 MiB (7%)\nLanguage                         : Portuguese\n\nText #1\nLanguage                         : Danish\n\nText #2\nLanguage                         : Swedish\n\nText #3\nLanguage                         : Finnish\n\nTwo boys growing up in a violent neighborhood of Rio de Janeiro \n\ntake different paths: one becomes a photographer, the other a drug \n\ndealer.","torrent":{"xt":"urn:btih:eaf9b7cf675d69c5dc0057dd0c9fb52188762bc4","amp;dn":"City.of.God.2002.DVDRiP.XviD.OPTIONAL-MULTISUB-Zen_Bud","amp;tr":["udp%3A%2F%2Ftracker.openbittorrent.com%3A80","udp%3A%2F%2Fopen.demonii.com%3A1337","udp%3A%2F%2Ftracker.coppersurfer.tk%3A6969","udp%3A%2F%2Fexodus.desync.com%3A6969"],"infoHash":"eaf9b7cf675d69c5dc0057dd0c9fb52188762bc4","infoHashBuffer":{"type":"Buffer","data":[234,249,183,207,103,93,105,197,220,0,87,221,12,159,181,33,136,118,43,196]},"announce":[],"urlList":[]}}